<svg width="22" height="22" viewBox="0 0 22 22" fill="none" xmlns="http://www.w3.org/2000/svg">
<path opacity="0.4" fill-rule="evenodd" clip-rule="evenodd" d="M15.3852 0.767442H18.7277C20.1107 0.767442 21.2325 1.89906 21.2325 3.29507V6.66559C21.2325 8.06055 20.1107 9.19322 18.7277 9.19322H15.3852C14.0012 9.19322 12.8793 8.06055 12.8793 6.66559V3.29507C12.8793 1.89906 14.0012 0.767442 15.3852 0.767442Z" stroke="#200E32" stroke-width="1.5" stroke-linecap="round" stroke-linejoin="round"/>
<path fill-rule="evenodd" clip-rule="evenodd" d="M3.27331 0.767442H6.61483C7.99882 0.767442 9.1207 1.89906 9.1207 3.29507V6.66559C9.1207 8.06055 7.99882 9.19322 6.61483 9.19322H3.27331C1.88932 9.19322 0.767442 8.06055 0.767442 6.66559V3.29507C0.767442 1.89906 1.88932 0.767442 3.27331 0.767442Z" stroke="#200E32" stroke-width="1.5" stroke-linecap="round" stroke-linejoin="round"/>
<path fill-rule="evenodd" clip-rule="evenodd" d="M3.27331 12.8068H6.61483C7.99882 12.8068 9.1207 13.9384 9.1207 15.3355V18.7049C9.1207 20.1009 7.99882 21.2326 6.61483 21.2326H3.27331C1.88932 21.2326 0.767442 20.1009 0.767442 18.7049V15.3355C0.767442 13.9384 1.88932 12.8068 3.27331 12.8068Z" stroke="#200E32" stroke-width="1.5" stroke-linecap="round" stroke-linejoin="round"/>
<path fill-rule="evenodd" clip-rule="evenodd" d="M15.3852 12.8068H18.7277C20.1107 12.8068 21.2325 13.9384 21.2325 15.3355V18.7049C21.2325 20.1009 20.1107 21.2326 18.7277 21.2326H15.3852C14.0012 21.2326 12.8793 20.1009 12.8793 18.7049V15.3355C12.8793 13.9384 14.0012 12.8068 15.3852 12.8068Z" stroke="#200E32" stroke-width="1.5" stroke-linecap="round" stroke-linejoin="round"/>
</svg>
