<svg width="16" height="39" viewBox="0 0 16 39" fill="none" xmlns="http://www.w3.org/2000/svg">
<path d="M5.38085 30.1213C5.38085 30.1213 -1.31392 18.3717 0.231635 15.3749C1.77719 12.3781 5.72361 17.7663 5.72361 17.7663C5.72361 17.7663 2.29132 6.80755 4.17963 2.01995C6.06794 -2.76764 9.32885 2.01996 9.50023 5.40822C9.67161 8.79649 8.81314 14.5746 8.81314 14.5746C8.81314 14.5746 10.1873 2.62528 13.4482 6.20537C16.7091 9.78545 9.32885 21.7474 9.32885 21.7474C9.32885 21.7474 14.3067 18.9581 14.1337 22.5445C13.9608 26.1309 8.12763 29.3195 8.12763 29.3195" fill="#2F80ED"/>
<path d="M5.43749 27.9296C5.43749 27.9296 -0.757295 22.1499 2.26148 19.5603C5.28026 16.9708 6.86826 22.3495 6.86826 22.3495C6.86826 22.3495 3.53189 5.81071 8.93267 5.21167C14.3335 4.61263 10.3619 19.5587 10.3619 19.5587C10.3619 19.5587 14.9687 13.1831 14.6511 18.3717C14.3335 23.5602 7.50347 27.9374 7.50347 27.9374" stroke="#263238" stroke-miterlimit="10"/>
<path d="M8.47982 26.8777L4.29441 22.3417" stroke="#263238" stroke-miterlimit="10"/>
<path d="M7.60884 27.2268L8.74245 13.9677" stroke="#263238" stroke-miterlimit="10"/>
<path d="M7.43429 26.2661L11.1842 21.2945" stroke="#263238" stroke-miterlimit="10"/>
<path d="M12.8587 25.3416H1.27885L2.43762 39H11.6999L12.8587 25.3416Z" fill="#263238"/>
</svg>
