<svg width="70" height="66" viewBox="0 0 70 66" fill="none" xmlns="http://www.w3.org/2000/svg">
<path d="M21.78 4.06271C21.78 4.06271 9.95978 10.0843 4.06451 19.3633C-1.83077 28.6422 -1.36432 40.5794 5.79924 49.4403C12.9628 58.3011 26.655 57.1373 38.1195 62.7503C49.584 68.3632 62.2326 67.2072 67.6536 55.3152C73.0746 43.4233 64.9002 38.9788 63.4962 25.2164C62.0922 11.454 49.6854 -8.69816 21.78 4.06271Z" fill="#2F80ED"/>
<path opacity="0.7" d="M21.78 4.06271C21.78 4.06271 9.95978 10.0843 4.06451 19.3633C-1.83077 28.6422 -1.36432 40.5794 5.79924 49.4403C12.9628 58.3011 26.655 57.1373 38.1195 62.7503C49.584 68.3632 62.2326 67.2072 67.6536 55.3152C73.0746 43.4233 64.9002 38.9788 63.4962 25.2164C62.0922 11.454 49.6854 -8.69816 21.78 4.06271Z" fill="white"/>
</svg>
