<svg width="21" height="21" viewBox="0 0 21 21" fill="none" xmlns="http://www.w3.org/2000/svg">
<path opacity="0.4" fill-rule="evenodd" clip-rule="evenodd" d="M19.781 7.82966C19.1333 3.84317 15.7472 0.877426 11.7102 0.76068C11.5182 0.753155 11.3312 0.822264 11.1902 0.952775C11.0492 1.08329 10.966 1.26449 10.9587 1.45645V1.45645V1.52138L11.4133 8.32134C11.4431 8.77908 11.8366 9.12705 12.2946 9.10059L19.1131 8.64603C19.3052 8.63182 19.4838 8.54158 19.6091 8.39531C19.7345 8.24904 19.7964 8.05881 19.781 7.86677V7.82966Z" stroke="#200E32" stroke-width="1.5" stroke-linecap="round" stroke-linejoin="round"/>
<path d="M6.98824 4.8054C7.42197 4.70507 7.86582 4.927 8.0458 5.33418C8.09295 5.42995 8.12129 5.53387 8.12929 5.64032C8.22206 6.95763 8.41688 9.84274 8.5282 11.4013C8.54721 11.682 8.67731 11.9436 8.88972 12.1281C9.10213 12.3127 9.37933 12.405 9.65998 12.3846V12.3846L15.3838 12.0321C15.6393 12.0167 15.8899 12.1076 16.0761 12.2833C16.2623 12.459 16.3676 12.7038 16.3672 12.9598V12.9598C16.1352 16.4162 13.6519 19.3057 10.2696 20.0547C6.8874 20.8037 3.41633 19.2327 1.7468 16.1974C1.24841 15.3238 0.932795 14.358 0.819115 13.3587C0.770516 13.052 0.751874 12.7413 0.763453 12.431C0.773298 8.73983 3.36562 5.5594 6.97896 4.8054" stroke="#200E32" stroke-width="1.5" stroke-linecap="round" stroke-linejoin="round"/>
</svg>
