<svg width="23" height="22" viewBox="0 0 23 22" fill="none" xmlns="http://www.w3.org/2000/svg">
<path opacity="0.2" d="M18.3649 5.47696C18.3649 5.47696 17.3897 8.40233 16.3334 8.97116C15.277 9.53998 9.2637 11.0839 6.90714 10.7589C4.55059 10.4338 3.25042 9.53998 3.25042 9.53998C3.25042 9.53998 1.95025 11.2465 1.38143 11.8153C0.985338 12.1831 0.513962 12.4604 0 12.6279C0 12.6279 2.82787 19.7317 4.861 21.9306C5.01897 21.9794 5.18674 21.9872 5.34857 21.9533C6.70887 21.6575 6.23431 20.1201 6.23431 20.1201C6.23431 20.1201 7.29882 21.1245 8.24632 20.4159C9.19381 19.7073 8.65912 19.0556 8.36333 18.2869C8.06754 17.5181 5.93202 15.212 5.93202 15.212C5.93202 15.212 8.2967 16.5121 9.06542 16.1578C9.83414 15.8035 10.5444 15.0332 10.5444 15.0332C10.5444 15.0332 12.2004 15.5663 12.9692 14.6789C13.7379 13.7915 13.9736 11.2497 13.9736 11.2497C13.9736 11.2497 16.634 9.8894 17.5815 8.5291C18.529 7.1688 19.2961 5.33556 19.2961 5.33556L23 0L18.3649 5.47696Z" fill="black"/>
</svg>
