<svg width="17" height="17" viewBox="0 0 17 17" fill="none" xmlns="http://www.w3.org/2000/svg">
<path d="M6.9363 0.778352C7.36681 0.678769 7.80737 0.899046 7.98601 1.3032C8.0328 1.39826 8.06093 1.50141 8.06888 1.60707C8.16096 2.91459 8.35432 5.77826 8.46482 7.32519C8.48368 7.60385 8.61282 7.8635 8.82365 8.04668C9.03448 8.22986 9.30963 8.32147 9.58819 8.30123V8.30123L15.2695 7.95133C15.5231 7.93609 15.7718 8.02632 15.9566 8.20069C16.1414 8.37505 16.246 8.61803 16.2455 8.87212V8.87212C16.0153 12.3028 13.5504 15.1709 10.1933 15.9143C6.83621 16.6577 3.39094 15.0985 1.73382 12.0857C1.23914 11.2186 0.925863 10.26 0.813027 9.26807C0.764789 8.96365 0.746286 8.65527 0.757779 8.34727C0.767551 4.68354 3.34061 1.52675 6.92709 0.778352" stroke="#200E32" stroke-width="1.5" stroke-linecap="round" stroke-linejoin="round"/>
</svg>
