<svg width="30" height="30" viewBox="0 0 30 30" fill="none" xmlns="http://www.w3.org/2000/svg">
<path d="M29.2348 0.566512L20.4481 13.2264C20.4481 13.2264 19.6966 15.0184 18.772 16.3481C17.8475 17.6778 15.2548 19.0075 15.2548 19.0075C15.2548 19.0075 15.0244 21.4921 14.273 22.3595C13.5216 23.2269 11.9027 22.7074 11.9027 22.7074C11.9027 22.7074 11.2085 23.4589 10.4571 23.8052C9.70565 24.1515 7.39418 22.8806 7.39418 22.8806C7.39418 22.8806 9.47371 25.1349 9.76284 25.8863C10.052 26.6378 10.5731 27.2732 9.64846 27.9674C8.72387 28.6617 7.68172 27.6783 7.68172 27.6783C7.68172 27.6783 8.1456 29.1812 6.81591 29.4703C5.48621 29.7594 4.03737 26.8681 3.4591 25.8863C2.88084 24.9045 1.20482 21.203 0.917274 21.0298C0.629729 20.8567 0.224625 19.9321 0.802891 19.0647C1.38116 18.1973 5.48304 12.6481 5.94533 12.2526C6.40763 11.857 15.2548 9.75841 15.2548 9.75841L18.6084 0.509321" stroke="#263238" stroke-linecap="round" stroke-linejoin="round"/>
</svg>
